<svg xmlns="http://www.w3.org/2000/svg" viewBox="0 0 512 512">
  <rect width="512" height="512" rx="112" fill="#7c6af7"/>
  <g fill="#fff">
    <!-- cabide -->
    <path d="M256 108c-26 0-47 21-47 47 0 15 7 28 18 37l-137 79c-11 6-18 18-18 31 0 20 16 36 36 36h296c20 0 36-16 36-36 0-13-7-25-18-31l-137-79c11-9 18-22 18-37 0-26-21-47-47-47zm0 30c10 0 17 8 17 17s-7 17-17 17-17-8-17-17 7-17 17-17z"/>
    <!-- t-shirt -->
    <path d="M188 356h136c9 0 16 7 16 16v52c0 9-7 16-16 16H188c-9 0-16-7-16-16v-52c0-9 7-16 16-16z" opacity=".55"/>
  </g>
</svg>
